<svg width="7" height="12" viewBox="0 0 7 12" fill="none" xmlns="http://www.w3.org/2000/svg">
<path fill-rule="evenodd" clip-rule="evenodd" d="M6.99999 5.99772C6.99878 6.22098 6.90882 6.43575 6.74808 6.59821L1.47007 11.7597C1.3084 11.9133 1.08931 12 0.860985 12C0.632659 12 0.413569 11.9133 0.251904 11.7597C0.0902428 11.6005 -2.67567e-08 11.3879 -3.644e-08 11.1664C-4.61221e-08 10.9448 0.0902428 10.7322 0.251904 10.573L4.92802 5.99772L0.251903 1.43609C0.0902424 1.27689 -4.78043e-07 1.06363 -4.87727e-07 0.842116C-4.97409e-07 0.620602 0.0902424 0.407996 0.251903 0.248793C0.330376 0.170094 0.425089 0.107301 0.529784 0.0644779C0.634479 0.0216551 0.747049 -3.26546e-08 0.860984 -3.76348e-08C0.97492 -4.26151e-08 1.08783 0.021655 1.19253 0.0644779C1.29722 0.107301 1.39159 0.170093 1.47007 0.248793L6.74808 5.41091C6.82855 5.48813 6.89215 5.57983 6.93539 5.68054C6.97863 5.78125 7.00058 5.88891 6.99999 5.99772Z" fill="#4F649A"/>
</svg>
