<svg width="7" height="13" viewBox="0 0 7 13" fill="none" xmlns="http://www.w3.org/2000/svg">
<path fill-rule="evenodd" clip-rule="evenodd" d="M7.00035 6.49772C6.99915 6.72098 6.90919 6.93575 6.74845 7.09821L1.47043 12.2597C1.30877 12.4133 1.08968 12.5 0.861351 12.5C0.633025 12.5 0.413935 12.4133 0.25227 12.2597C0.0906091 12.1005 0.000366184 11.8879 0.000366174 11.6664C0.000366165 11.4448 0.090609 11.2322 0.25227 11.073L4.92839 6.49772L0.25227 1.93609C0.0906086 1.77689 0.000365733 1.56363 0.000365723 1.34212C0.000365714 1.1206 0.0906086 0.907996 0.25227 0.748793C0.330742 0.670094 0.425455 0.607301 0.53015 0.564478C0.634845 0.521655 0.747415 0.5 0.861351 0.5C0.975286 0.5 1.0882 0.521655 1.19289 0.564478C1.29759 0.607301 1.39196 0.670093 1.47043 0.748793L6.74845 5.91091C6.82892 5.98813 6.89251 6.07983 6.93576 6.18054C6.979 6.28125 7.00094 6.38891 7.00035 6.49772Z" fill="#666666"/>
</svg>
