<svg width="52" height="52" viewBox="0 0 52 52" fill="none" xmlns="http://www.w3.org/2000/svg">
<circle cx="26" cy="26" r="26" fill="white"/>
<circle cx="26" cy="26" r="25" stroke="#4F649A" stroke-width="2"/>
<g clip-path="url(#clip0_84_9567)">
<path d="M8.20846 23.2539V23.2697L8.20214 23.2918C8.19582 23.3234 8.19267 23.355 8.18951 23.3834V23.3897C8.18951 23.3897 8.18951 23.4024 8.18951 23.4087C8.18951 23.4276 8.18319 23.4466 8.18319 23.4655L8.17687 23.5129V23.5224L8.17371 23.5382V23.5476V23.554V23.5571V23.5729V23.5855V23.595C8.1674 23.655 8.15792 23.715 8.15161 23.775C8.14529 23.8287 8.13897 23.8824 8.13265 23.9361C8.13265 23.9582 8.1295 23.9771 8.12634 23.9961H8.11055V23.9993C8.10423 24.0656 8.09475 24.1319 8.08844 24.1951C8.08212 24.2424 8.07896 24.293 8.0758 24.3435V24.3498L8.06949 24.3972C8.06949 24.4161 8.06633 24.4351 8.06317 24.454C8.06317 24.473 8.06001 24.4951 8.05685 24.514C8.05685 24.5235 8.05685 24.5361 8.05685 24.5456C8.05685 24.5614 8.05685 24.5772 8.05369 24.593C8.05369 24.6119 8.05369 24.6309 8.05054 24.653C8.05054 24.6625 8.05054 24.6719 8.05054 24.6814C8.04422 24.7477 8.04106 24.8172 8.03474 24.8993H8.03158C8.03158 24.9372 8.02843 24.972 8.02527 25.0036C8.02527 25.0383 8.02211 25.0762 8.01895 25.1109V25.1172V25.1236H8.02211C8.02211 25.1236 8.02211 25.133 8.02211 25.1394C8.02211 25.1488 8.02211 25.1551 8.02211 25.1646V25.1741H8.01895V25.1867C8.01895 25.2278 8.01579 25.2657 8.01263 25.3067C8.01263 25.3225 8.01263 25.3415 8.01263 25.3573C8.01263 25.4299 8.00632 25.4994 8.00632 25.5689C8.00632 25.5783 8.00632 25.591 8.00632 25.6036V25.6289C8.00632 25.6857 8.00632 25.7457 8.00632 25.8026V25.8342V25.8499H8V25.9099C8 25.9289 8 25.9447 8 25.9636C8 25.9763 8 25.9889 8 26.0015C8 26.0142 8 26.0268 8 26.0394C8 26.0552 8 26.0742 8 26.09V26.1942C8.05054 29.6176 9.42446 32.8295 11.8628 35.2329C14.3043 37.6426 17.5385 38.969 20.9686 38.969C21.515 38.969 22.0551 38.9342 22.5889 38.8679C22.8321 38.8363 23.0721 38.8048 23.3122 38.7606C21.5371 37.6868 20.0021 36.2498 18.7956 34.5223C18.3566 33.897 17.9712 33.2401 17.6396 32.5642C17.5638 32.4126 17.4943 32.2579 17.4248 32.1031C17.4185 32.0873 17.409 32.0684 17.4027 32.0526C16.5626 30.1609 16.1235 28.1112 16.1235 26.0015C16.1235 22.935 17.049 19.9884 18.7987 17.4808C19.1999 16.906 19.6389 16.3628 20.1126 15.8543C21.6477 14.1995 23.5301 12.9172 25.6526 12.0961C26.2969 11.8466 26.9507 11.6445 27.6203 11.4866C28.7321 11.2245 29.8754 11.095 31.0346 11.095C33.7445 11.095 36.3471 11.815 38.6212 13.1636C38.6212 13.1636 38.6212 13.1636 38.618 13.1604C38.5991 13.1415 38.5738 13.1194 38.5548 13.0972C38.5264 13.0688 38.498 13.0436 38.4696 13.0151C38.4601 13.0057 38.4506 12.9993 38.4443 12.9899L38.438 12.9836L38.4348 12.9772C38.4095 12.9551 38.3811 12.9299 38.3559 12.9046C38.3274 12.8793 38.3022 12.8541 38.2737 12.8256V12.8193L38.2674 12.813C38.2674 12.813 38.2579 12.8035 38.2516 12.8004C38.22 12.772 38.1885 12.7404 38.1569 12.712L38.1506 12.7056L38.1095 12.6677C38.1095 12.6677 38.0969 12.6551 38.0874 12.6488C38.04 12.6077 37.9958 12.5667 37.9516 12.5256C37.8979 12.4782 37.8473 12.434 37.8 12.393C37.7842 12.3803 37.7684 12.3646 37.7494 12.3519C37.7147 12.3235 37.6799 12.2919 37.6452 12.2635L37.5757 12.2066L37.5378 12.1751L37.5094 12.1498L37.4936 12.1372C37.4525 12.1024 37.4115 12.0708 37.3704 12.0361L37.3641 12.0298L37.3609 12.0235H37.3546C37.323 11.995 37.2946 11.9698 37.263 11.9477C37.1651 11.8687 37.064 11.7898 36.963 11.714V11.7108C36.9345 11.6887 36.9093 11.6698 36.8809 11.6476L36.8461 11.6224L36.8272 11.6066C36.8272 11.6066 36.8177 11.6003 36.8145 11.5971C36.8145 11.5971 36.8145 11.5971 36.8114 11.594L36.8082 11.5908L36.8019 11.5845L36.745 11.5434L36.7229 11.5276L36.644 11.4708C36.644 11.4708 36.6282 11.4582 36.6187 11.4518C36.6029 11.4424 36.5903 11.4297 36.5745 11.4203L36.5429 11.3982C36.5113 11.376 36.4829 11.3539 36.4513 11.3318C36.445 11.3255 36.4355 11.3224 36.4292 11.316L36.4197 11.3097L36.4134 11.3034C36.3376 11.2497 36.265 11.1992 36.1892 11.1455C36.1544 11.1202 36.1228 11.0981 36.0881 11.0729C36.0786 11.0665 36.0723 11.0602 36.0628 11.0571C36.0123 11.0255 35.9617 10.9907 35.9112 10.956C35.9112 10.956 35.9049 10.9528 35.9017 10.9497H35.8986H35.8923C35.8923 10.9497 35.8701 10.9339 35.8607 10.9244C35.8228 10.8992 35.788 10.8771 35.7501 10.8549H35.7438V10.8518H35.7375C35.6838 10.8107 35.627 10.7792 35.5733 10.7444H35.5669V10.7413L35.5606 10.7349C35.5038 10.7002 35.4469 10.6623 35.3901 10.6307L35.2985 10.577C35.2985 10.577 35.27 10.5581 35.2574 10.5518C35.2416 10.5423 35.2227 10.5297 35.2037 10.5202H35.2006C35.1911 10.5139 35.1784 10.5075 35.169 10.5012C35.1279 10.476 35.0869 10.4539 35.0458 10.4286L35.0142 10.4096C35.0142 10.4096 34.9858 10.3939 34.9732 10.3844C34.9353 10.3623 34.8973 10.3402 34.8594 10.3181C34.8563 10.3181 34.8531 10.3149 34.8468 10.3117C34.591 10.1696 34.332 10.0307 34.0698 9.90118C34.0635 9.90118 34.0572 9.89486 34.0509 9.8917H34.0446C33.9877 9.86012 33.9309 9.8317 33.8709 9.80328L33.7161 9.73064C33.7161 9.73064 33.7066 9.72432 33.7035 9.72432C33.7035 9.72432 33.6971 9.72432 33.694 9.72116H33.6908C33.5076 9.63273 33.3402 9.5601 33.1792 9.49062H33.176L33.1728 9.48746H33.1697H33.1665C33.1286 9.46851 33.0876 9.45272 33.0497 9.43693L33.0339 9.43061L33.0212 9.42429L32.9517 9.39587C32.9265 9.3864 32.9012 9.37692 32.8759 9.36429C32.8633 9.35797 32.8538 9.35482 32.8412 9.35166C32.6675 9.28218 32.5254 9.22533 32.3959 9.17796L32.3169 9.14953H32.3074L32.2253 9.11479C32.0042 9.03584 31.7768 8.95689 31.5462 8.88425C31.5431 8.88425 31.5399 8.88425 31.5336 8.88109C31.4894 8.86846 31.4452 8.85267 31.4041 8.84003C31.3599 8.8274 31.3157 8.81161 31.2683 8.79898C31.243 8.7895 31.2146 8.78319 31.1893 8.77371C31.0883 8.74529 30.9935 8.71686 30.9051 8.6916H30.9019H30.8988C30.8861 8.68844 30.8735 8.68528 30.8609 8.68212C30.8419 8.67581 30.8198 8.67265 30.8008 8.66633H30.7882L30.7693 8.65686C30.5797 8.60633 30.3871 8.56211 30.1944 8.51474C30.0807 8.48948 29.967 8.46421 29.8533 8.43895C29.6606 8.39789 29.468 8.35683 29.2722 8.32209C29.1995 8.30946 29.1269 8.29683 29.0542 8.28419H29.0511C28.9784 8.27156 28.9058 8.25893 28.8331 8.24945C28.7984 8.24314 28.7668 8.23998 28.7321 8.23366C28.691 8.22735 28.6468 8.22103 28.6057 8.21472C28.3973 8.18629 28.1888 8.16103 27.9803 8.13892C27.5761 8.09786 27.1718 8.06944 26.7643 8.05365C26.5369 8.04417 26.3127 8.04102 26.0853 8.04102C25.7031 8.04102 25.3241 8.05365 24.9419 8.07891C24.9009 8.07891 24.863 8.08207 24.8219 8.08523C24.4018 8.11365 23.9818 8.15787 23.568 8.21472C23.4922 8.22419 23.4195 8.23682 23.3437 8.2463C23.3437 8.2463 23.3406 8.2463 23.3374 8.2463L8.20846 23.2476V23.2539Z" fill="url(#paint0_linear_84_9567)"/>
<path d="M43.7979 28.723V28.7104L43.801 28.6946C43.8042 28.6693 43.8073 28.644 43.8105 28.6188V28.6125V28.603V28.5935C43.8168 28.5619 43.8231 28.5272 43.8263 28.4925V28.4703L43.8326 28.4482C43.8326 28.4388 43.8326 28.4261 43.8389 28.4167L43.8516 28.303L43.861 28.2272C43.8705 28.1514 43.88 28.0819 43.8863 28.0124V28.0029C43.8958 27.9366 43.9021 27.8735 43.9084 27.8103C43.9147 27.7566 43.9179 27.7061 43.9242 27.6587L43.9305 27.6082C43.9337 27.5734 43.9368 27.5387 43.94 27.5039V27.4913V27.4787C43.9463 27.4345 43.9463 27.3871 43.9495 27.3429V27.3239C43.9558 27.2576 43.9621 27.1881 43.9653 27.1092V27.1029C43.9716 27.0334 43.9747 26.9639 43.9779 26.8944V26.8755V26.847V26.8186C43.9842 26.7618 43.9842 26.7049 43.9874 26.6449C43.9874 26.566 43.9937 26.4933 43.9937 26.4175V26.4081V26.3733C43.9937 26.3196 43.9937 26.2659 43.9937 26.2123V26.1428C43.9937 26.0954 43.9937 26.0512 43.9937 26.0038C43.9937 25.9564 43.9937 25.9059 43.9937 25.8585V25.808C43.9432 22.3846 42.5724 19.1758 40.1341 16.7693C37.6926 14.3596 34.4583 13.0332 31.0251 13.0332C30.2323 13.0332 29.449 13.1027 28.6815 13.2448C30.4566 14.3186 31.9947 15.7555 33.1981 17.4831C34.9479 19.9907 35.8733 22.9372 35.8733 26.0038C35.8733 29.0704 34.9479 32.017 33.1981 34.5246C31.4894 36.9721 29.1206 38.8355 26.3443 39.9092C24.6324 40.5725 22.8226 40.9104 20.9654 40.9104C18.2555 40.9104 15.6529 40.1903 13.3788 38.8449H13.382L13.3915 38.8576L13.401 38.867C13.401 38.867 13.4231 38.8892 13.4325 38.8986L13.4673 38.9334C13.4957 38.9618 13.5241 38.9902 13.5557 39.0186L13.562 39.025L13.5684 39.0313C13.6157 39.0786 13.6726 39.1323 13.7294 39.1829L13.7389 39.1892L13.7452 39.1955C13.7831 39.2302 13.8179 39.265 13.8558 39.2997L13.8589 39.306C13.9253 39.366 13.9884 39.426 14.0579 39.4829H14.0611L14.0642 39.4892C14.1084 39.5271 14.1527 39.5682 14.1969 39.6061L14.2064 39.6124L14.2348 39.6376L14.3643 39.7482L14.3895 39.7703L14.3959 39.7766C14.4306 39.805 14.4654 39.8334 14.5001 39.8619L14.5127 39.8713L14.5254 39.884C14.5569 39.9092 14.5885 39.9377 14.6264 39.9661L14.6391 39.9756L14.6517 39.985C14.6801 40.0071 14.7054 40.0293 14.7307 40.0514L14.7401 40.0577L14.7465 40.064C14.8412 40.1429 14.9423 40.2187 15.0433 40.2945C15.0655 40.3135 15.0876 40.3293 15.1097 40.3451C15.1349 40.364 15.1602 40.383 15.1855 40.4019C15.2013 40.4114 15.2139 40.4209 15.2265 40.4335L15.2518 40.4524C15.2929 40.484 15.3308 40.5125 15.3718 40.544L15.4097 40.5725C15.4287 40.5883 15.4508 40.6009 15.4697 40.6167L15.4761 40.623L15.4855 40.6293C15.514 40.6514 15.5455 40.6735 15.5771 40.6956L15.6087 40.7177C15.6814 40.7714 15.7572 40.822 15.833 40.8756H15.8393L15.8456 40.8851C15.8772 40.9072 15.9119 40.9293 15.9467 40.9514L15.9719 40.9672L16.0541 41.0209L16.1425 41.0809C16.1867 41.1094 16.2341 41.1409 16.2815 41.1694C16.3288 41.2009 16.3762 41.2294 16.4204 41.2578H16.5341L16.7394 41.4536C16.771 41.4725 16.8026 41.4915 16.8342 41.5104C16.8974 41.5483 16.9605 41.5831 17.0237 41.6178H17.03L17.0363 41.6241C17.0869 41.6526 17.1342 41.681 17.1848 41.7094C17.4501 41.861 17.7186 42.0031 17.9902 42.1358C18.0502 42.1642 18.1102 42.1958 18.1671 42.2242C18.1765 42.2305 18.186 42.2337 18.1923 42.2368C18.2492 42.2621 18.3029 42.2905 18.3597 42.3158C18.5303 42.3947 18.704 42.4737 18.8714 42.5463H18.8745H18.8777C18.9188 42.5653 18.963 42.5842 19.004 42.6C19.0167 42.6063 19.0293 42.6095 19.0451 42.619C19.102 42.6411 19.1588 42.6663 19.2157 42.6884C19.3546 42.7453 19.5031 42.8021 19.661 42.8621H19.6673L19.6736 42.8653C19.721 42.8842 19.7715 42.9032 19.8189 42.919H19.8252L19.8316 42.9221C20.0621 43.0074 20.2895 43.0832 20.5075 43.1527H20.5138L20.5201 43.159C20.5643 43.1748 20.6085 43.1874 20.6528 43.2032H20.6591H20.6654C20.7317 43.2253 20.798 43.2443 20.8644 43.2664L20.9212 43.2822C21.0002 43.3043 21.0823 43.3264 21.1613 43.3485C21.2055 43.3611 21.2465 43.3706 21.2844 43.3832H21.2939C21.7898 43.519 22.2951 43.6327 22.791 43.718H22.7973H22.8037C22.8637 43.7275 22.93 43.7401 23.009 43.7527H23.0184C23.0974 43.7685 23.1669 43.778 23.2269 43.7875H23.2364H23.2458C23.3153 43.8001 23.3848 43.8096 23.4575 43.8191H23.4638C24.2944 43.9359 25.1409 43.9959 25.9811 43.9959C26.8212 43.9959 27.6708 43.9359 28.5015 43.8222H28.5204C28.5868 43.8096 28.6531 43.8001 28.7194 43.7906H28.7289H28.7352L43.7758 28.7514C43.7758 28.7514 43.7758 28.7325 43.7789 28.7262L43.7979 28.723Z" fill="url(#paint1_linear_84_9567)"/>
</g>
<defs>
<linearGradient id="paint0_linear_84_9567" x1="8" y1="23.4845" x2="38.6148" y2="23.4845" gradientUnits="userSpaceOnUse">
<stop stop-color="#822020"/>
<stop offset="0.33" stop-color="#AA1717"/>
<stop offset="0.52" stop-color="#C72424"/>
<stop offset="0.73" stop-color="#BD2C2C"/>
<stop offset="1" stop-color="#F57474"/>
</linearGradient>
<linearGradient id="paint1_linear_84_9567" x1="13.3852" y1="28.5146" x2="44" y2="28.5146" gradientUnits="userSpaceOnUse">
<stop stop-color="#141D35"/>
<stop offset="0.33" stop-color="#0F1339"/>
<stop offset="0.52" stop-color="#252B5E"/>
<stop offset="0.73" stop-color="#2F4886"/>
<stop offset="1" stop-color="#4F649A"/>
</linearGradient>
<clipPath id="clip0_84_9567">
<rect width="36" height="36" fill="white" transform="translate(8 8)"/>
</clipPath>
</defs>
</svg>
