<svg width="9" height="5" viewBox="0 0 9 5" fill="none" xmlns="http://www.w3.org/2000/svg">
<path fill-rule="evenodd" clip-rule="evenodd" d="M4.5 0C4.33262 0.000860214 4.1716 0.0651202 4.0498 0.179932L0.180176 3.94995C0.0650064 4.06543 0 4.22192 0 4.38501C0 4.5481 0.0650064 4.70459 0.180176 4.82007C0.299533 4.93554 0.458927 5 0.625 5C0.791073 5 0.950467 4.93554 1.06982 4.82007L4.5 1.47998L7.91992 4.82007C8.03928 4.93554 8.19916 5 8.36523 5C8.53131 5 8.6907 4.93554 8.81006 4.82007C8.86906 4.76402 8.91614 4.69636 8.94824 4.62158C8.98035 4.5468 8.99658 4.46639 8.99658 4.38501C8.99658 4.30363 8.98035 4.22298 8.94824 4.14819C8.91614 4.07341 8.86906 4.006 8.81006 3.94995L4.93994 0.179932C4.88205 0.122457 4.8133 0.0770307 4.73779 0.0461426C4.66229 0.0152545 4.58158 -0.00041914 4.5 0Z" fill="#333333"/>
</svg>
