<svg width="26" height="26" viewBox="0 0 26 26" fill="none" xmlns="http://www.w3.org/2000/svg">
<path fill-rule="evenodd" clip-rule="evenodd" d="M13 7.09353L12.8641 6.93889C11.9166 5.8609 10.4628 5.17778 8.95 5.17778C6.27413 5.17778 4.18 7.21148 4.18 9.79564C4.18 11.3841 4.91572 12.8399 6.24766 14.4186C7.57658 15.9938 9.47931 17.6689 11.7888 19.7022L11.8144 19.7247L12.9995 20.7621L14.1851 19.7164L14.1869 19.7149C16.5074 17.6763 18.4188 15.9971 19.7524 14.4175C21.0843 12.8399 21.82 11.3841 21.82 9.79564C21.82 7.21148 19.7259 5.17778 17.05 5.17778C15.5372 5.17778 14.0834 5.8609 13.1359 6.93889L13 7.09353ZM13 21L11.695 19.8578L11.6595 19.8265C7.04437 15.7634 4 13.0831 4 9.79564C4 7.11008 6.178 5 8.95 5C10.4528 5 11.8976 5.65041 12.8787 6.68923C12.92 6.73292 12.9604 6.7773 13 6.82234C13.0396 6.7773 13.08 6.73292 13.1213 6.68923C14.1024 5.65041 15.5472 5 17.05 5C19.822 5 22 7.11008 22 9.79564C22 13.0888 18.945 15.7727 14.3164 19.839L14.305 19.849L13 21Z" stroke="#4F649A" stroke-width="0.8"/>
</svg>
