<svg width="23" height="22" viewBox="0 0 23 22" fill="none" xmlns="http://www.w3.org/2000/svg">
<path d="M14.2009 20.2227L14.2118 20.2303C15.1562 20.8317 16.2776 21.0928 17.3906 20.9706C18.5035 20.8484 19.5415 20.3501 20.3329 19.5581L21.0204 18.8706C21.1728 18.7183 21.2937 18.5375 21.3761 18.3385C21.4586 18.1395 21.501 17.9262 21.501 17.7108C21.501 17.4954 21.4586 17.2821 21.3761 17.0832C21.2937 16.8842 21.1728 16.7034 21.0204 16.5511L18.1206 13.6534C17.9683 13.5011 17.7875 13.3802 17.5885 13.2977C17.3895 13.2153 17.1762 13.1728 16.9608 13.1728C16.7454 13.1728 16.5321 13.2153 16.3331 13.2977C16.1341 13.3802 15.9534 13.5011 15.8011 13.6534C15.4936 13.9608 15.0767 14.1335 14.6419 14.1335C14.2071 14.1335 13.7902 13.9608 13.4827 13.6534L8.84597 9.01558C8.5386 8.70811 8.36593 8.29115 8.36593 7.85639C8.36593 7.42163 8.5386 7.00467 8.84597 6.69721C8.99834 6.54494 9.1192 6.36415 9.20166 6.16516C9.28413 5.96616 9.32657 5.75287 9.32657 5.53747C9.32657 5.32207 9.28413 5.10878 9.20166 4.90979C9.1192 4.7108 8.99834 4.53 8.84597 4.37774L5.94719 1.48005C5.63972 1.17267 5.22276 1 4.788 1C4.35324 1 3.93628 1.17267 3.62882 1.48005L2.94019 2.16758C2.14837 2.95915 1.6503 3.99717 1.52827 5.11012C1.40624 6.22308 1.66757 7.34436 2.26906 8.28869L2.27561 8.29962C5.45223 12.9995 9.50036 17.0469 14.2009 20.2227V20.2227Z" stroke="#4F649A" stroke-width="1.6" stroke-linecap="round" stroke-linejoin="round"/>
</svg>
