<svg width="9" height="6" viewBox="0 0 9 6" fill="none" xmlns="http://www.w3.org/2000/svg">
<path fill-rule="evenodd" clip-rule="evenodd" d="M4.5 5.5C4.33262 5.49914 4.1716 5.43488 4.0498 5.32007L0.180176 1.55005C0.0650064 1.43457 0 1.27808 0 1.11499C0 0.9519 0.0650064 0.795407 0.180176 0.679932C0.299533 0.564459 0.458927 0.5 0.625 0.5C0.791073 0.5 0.950467 0.564459 1.06982 0.679932L4.5 4.02002L7.91992 0.679932C8.03928 0.564459 8.19916 0.5 8.36523 0.5C8.53131 0.5 8.6907 0.564459 8.81006 0.679932C8.86906 0.735984 8.91614 0.803636 8.94824 0.878418C8.98035 0.9532 8.99658 1.03361 8.99658 1.11499C8.99658 1.19637 8.98035 1.27702 8.94824 1.35181C8.91614 1.42659 8.86906 1.494 8.81006 1.55005L4.93994 5.32007C4.88205 5.37754 4.8133 5.42297 4.73779 5.45386C4.66229 5.48475 4.58158 5.50042 4.5 5.5Z" fill="#919191"/>
</svg>
