<svg width="23" height="20" viewBox="0 0 23 20" fill="none" xmlns="http://www.w3.org/2000/svg">
<path d="M15.5 1V2.5C15.5 2.89782 15.3104 3.27936 14.9728 3.56066C14.6352 3.84196 14.1774 4 13.7 4H8.3C7.82261 4 7.36477 3.84196 7.02721 3.56066C6.68964 3.27936 6.5 2.89782 6.5 2.5V1" stroke="#4F649A" stroke-width="1.6" stroke-linecap="round" stroke-linejoin="round"/>
<path d="M17.7308 1H5.26923C3.73983 1 2.5 1.70077 2.5 2.56522V17.4348C2.5 18.2992 3.73983 19 5.26923 19H17.7308C19.2602 19 20.5 18.2992 20.5 17.4348V2.56522C20.5 1.70077 19.2602 1 17.7308 1Z" stroke="#4F649A" stroke-width="1.6" stroke-linecap="round" stroke-linejoin="round"/>
</svg>
