<svg width="9" height="5" viewBox="0 0 9 5" fill="none" xmlns="http://www.w3.org/2000/svg">
<path fill-rule="evenodd" clip-rule="evenodd" d="M4.49609 5C4.66347 4.99914 4.82449 4.93488 4.94629 4.82007L8.81592 1.05005C8.93109 0.934574 8.99609 0.778081 8.99609 0.61499C8.99609 0.4519 8.93109 0.295407 8.81592 0.179932C8.69656 0.0644593 8.53717 0 8.37109 0C8.20502 0 8.04563 0.0644593 7.92627 0.179932L4.49609 3.52002L1.07617 0.179932C0.956814 0.0644593 0.796932 0 0.630859 0C0.464787 0 0.305393 0.0644593 0.186035 0.179932C0.127033 0.235984 0.0799561 0.303636 0.0478516 0.378418C0.0157471 0.4532 -0.000488281 0.533608 -0.000488281 0.61499C-0.000488281 0.696373 0.0157471 0.777024 0.0478516 0.851807C0.0799561 0.926589 0.127033 0.993997 0.186035 1.05005L4.05615 4.82007C4.11405 4.87754 4.1828 4.92297 4.2583 4.95386C4.3338 4.98475 4.41452 5.00042 4.49609 5Z" fill="#333333"/>
</svg>
