<svg width="18" height="26" viewBox="0 0 18 26" fill="none" xmlns="http://www.w3.org/2000/svg">
<path d="M15.8538 5H2.14606C1.9043 4.99953 1.68265 5.14008 1.57213 5.36391C1.46009 5.59075 1.47975 5.86392 1.62289 6.0711L6.64483 13.433C6.6465 13.4355 6.64833 13.4379 6.65001 13.4404C6.83248 13.6968 6.93111 14.0072 6.93172 14.3264V20.3285C6.93065 20.5063 6.99772 20.677 7.11815 20.8031C7.23857 20.9292 7.40229 21 7.57302 21C7.65991 21 7.74574 20.9819 7.82592 20.9473L10.6479 19.8275C10.9008 19.7473 11.0686 19.499 11.0686 19.2V14.3264C11.069 14.0074 11.1678 13.6968 11.3501 13.4404C11.3518 13.4379 11.3536 13.4355 11.3553 13.433L16.3771 6.07078C16.5202 5.86376 16.5399 5.59075 16.4279 5.36391C16.3174 5.14008 16.0957 4.99953 15.8538 5ZM10.7209 12.9593C10.4404 13.3554 10.2887 13.8343 10.2878 14.3264V19.1013L7.7122 20.1232V14.3264C7.71129 13.8343 7.55961 13.3554 7.27897 12.9593L2.40353 5.81221H15.5965L10.7209 12.9593Z" fill="#919191"/>
</svg>
