<svg width="26" height="26" viewBox="0 0 26 26" fill="none" xmlns="http://www.w3.org/2000/svg">
<path fill-rule="evenodd" clip-rule="evenodd" d="M13 7.09353L12.8641 6.93889C11.9166 5.8609 10.4628 5.17778 8.95 5.17778C6.27413 5.17778 11.6595 4.91584 11.6595 7.5C11.6595 9.08843 11.6681 5.24362 13 6.82234C14.3289 8.39749 14 4 18.5 6L20.8223 6.93889L21.8108 9.5L21 12.6664L12.9995 20.7621L14.1851 19.7164L14.1869 19.7149C16.5074 17.6763 18.4188 15.9971 19.7524 14.4175C21.0843 12.8399 21.82 11.3841 21.82 9.79564C21.82 7.21148 19.7259 5.17778 17.05 5.17778C15.5372 5.17778 14.0834 5.8609 13.1359 6.93889L13 7.09353ZM13 21L11.695 19.8578L11.6595 19.8265C7.04437 15.7634 4 13.0831 4 9.79564C4 7.11008 6.178 5 8.95 5C10.4528 5 11.8976 5.65041 12.8787 6.68923C12.92 6.73292 12.9604 6.7773 13 6.82234C13.0396 6.7773 13.08 6.73292 13.1213 6.68923C14.1024 5.65041 15.5472 5 17.05 5C19.822 5 22 7.11008 22 9.79564C22 13.0888 18.945 15.7727 14.3164 19.839L14.305 19.849L13 21Z" fill="#4F649A"/>
<path d="M13 6.82234C11.6681 5.24362 11.6595 9.08843 11.6595 7.5C11.6595 4.91584 6.27413 5.17778 8.95 5.17778C10.4628 5.17778 11.9166 5.8609 12.8641 6.93889L13 7.09353L13.1359 6.93889C14.0834 5.8609 15.5372 5.17778 17.05 5.17778C19.7259 5.17778 21.82 7.21148 21.82 9.79564C21.82 11.3841 21.0843 12.8399 19.7524 14.4175C18.4188 15.9971 16.5074 17.6763 14.1869 19.7149L14.1851 19.7164L12.9995 20.7621L21 12.6664L21.8108 9.5L20.8223 6.93889L18.5 6C14 4 14.3289 8.39749 13 6.82234ZM13 6.82234C12.9604 6.7773 12.92 6.73292 12.8787 6.68923C11.8976 5.65041 10.4528 5 8.95 5C6.178 5 4 7.11008 4 9.79564C4 13.0831 7.04437 15.7634 11.6595 19.8265L11.695 19.8578L13 21L14.305 19.849L14.3164 19.839C18.945 15.7727 22 13.0888 22 9.79564C22 7.11008 19.822 5 17.05 5C15.5472 5 14.1024 5.65041 13.1213 6.68923C13.08 6.73292 13.0396 6.7773 13 6.82234Z" stroke="#4F649A" stroke-width="0.8"/>
</svg>
